# xmcd CD database file
#
# Track frame offsets:
#	150
#	18723
#	33062
#	53429
#	74970
#	93620
#	113141
#	133368
#	157927
#	176563
#	194834
#
# Disc length: 2822 seconds
#
# Revision: 1
# Processed by: cddbd v1.5.2PL0 Copyright (c) Steve Scherf et al.
# Submitted via: CDex 1.70beta2
#
DISCID=9f0b040b
DTITLE=Erin Bode - Photograph
DYEAR=2010
DGENRE=Jazz
TTITLE0=The Mountain
TTITLE1=Heart Of Mine
TTITLE2=To Lose
TTITLE3=Stephanie Moore
TTITLE4=November
TTITLE5=The Letter
TTITLE6=Joseph
TTITLE7=Photograph
TTITLE8=Beating On The Door
TTITLE9=Telescope
TTITLE10=Wise Man
EXTD=YEAR: 2010
EXTT0=
EXTT1=
EXTT2=
EXTT3=
EXTT4=
EXTT5=
EXTT6=
EXTT7=
EXTT8=
EXTT9=
EXTT10=
PLAYORDER=
